<?xml version="1.0" standalone="no"?>
<!DOCTYPE svg PUBLIC "-//W3C//DTD SVG 20010904//EN"
 "http://www.w3.org/TR/2001/REC-SVG-20010904/DTD/svg10.dtd">
<svg version="1.0" xmlns="http://www.w3.org/2000/svg"
 width="1005.000000pt" height="1005.000000pt" viewBox="0 0 1005.000000 1005.000000"
 preserveAspectRatio="xMidYMid meet">
<metadata>
Created by potrace 1.11, written by Peter Selinger 2001-2013
</metadata>
<g transform="translate(0.000000,1005.000000) scale(0.100000,-0.100000)"
fill="#000000" stroke="none">
<path d="M4928 10034 c-4 -5 -37 -8 -74 -7 -54 2 -70 -1 -81 -15 -11 -14 -12
-14 -8 -1 5 14 -4 15 -77 12 -46 -3 -88 -9 -95 -14 -7 -7 -14 -6 -18 2 -6 8
-10 7 -16 -2 -7 -11 -9 -11 -9 -1 0 7 -5 10 -11 6 -6 -3 -34 -8 -62 -10 -92
-7 -102 -9 -109 -18 -4 -6 -12 -5 -21 2 -7 7 -16 9 -19 6 -6 -6 -50 -14 -90
-17 -15 -1 -28 -4 -28 -7 0 -3 -10 -6 -22 -6 -78 -5 -97 -8 -92 -15 3 -5 -1
-6 -9 -3 -7 2 -34 0 -58 -6 -24 -6 -60 -13 -79 -16 -19 -2 -43 -7 -52 -10 -10
-3 -28 -7 -40 -10 -101 -19 -203 -46 -227 -61 -13 -8 -21 -11 -18 -5 4 5 -18
2 -47 -7 -30 -8 -52 -20 -49 -25 4 -5 1 -6 -5 -2 -12 7 -92 -15 -92 -26 0 -4
-7 -4 -17 -1 -12 5 -14 3 -8 -7 5 -8 4 -11 -2 -7 -11 7 -163 -40 -173 -52 -3
-4 -12 -6 -20 -6 -8 1 -24 -4 -35 -11 -11 -6 -37 -17 -57 -24 -21 -6 -38 -16
-38 -21 0 -5 -3 -8 -7 -7 -5 1 -23 -2 -41 -6 -26 -6 -32 -12 -27 -24 5 -13 3
-14 -5 -6 -9 9 -26 6 -68 -13 -32 -14 -61 -31 -67 -38 -5 -6 -15 -10 -21 -8
-7 2 -19 -3 -27 -12 -9 -9 -18 -15 -19 -14 -2 2 -13 0 -26 -3 -16 -5 -20 -11
-16 -25 4 -13 3 -14 -4 -5 -7 11 -18 9 -55 -9 -25 -12 -43 -27 -40 -32 3 -6 1
-7 -5 -3 -6 3 -28 -3 -49 -15 -21 -13 -58 -33 -82 -46 -61 -33 -82 -49 -75
-56 3 -3 -4 -3 -17 0 -18 5 -21 3 -16 -11 4 -10 3 -15 -3 -11 -14 9 -72 -24
-64 -37 4 -7 3 -8 -4 -4 -10 6 -146 -73 -162 -94 -3 -3 -22 -16 -42 -29 -21
-12 -38 -27 -38 -32 0 -6 -4 -8 -8 -5 -5 3 -20 -6 -35 -20 -15 -14 -27 -22
-27 -19 0 4 -6 0 -13 -7 -8 -7 -26 -22 -41 -33 -16 -11 -56 -42 -91 -70 -175
-140 -234 -191 -235 -203 0 -7 -4 -11 -9 -8 -12 8 -34 -21 -26 -33 3 -6 0 -9
-7 -6 -18 7 -271 -243 -262 -257 4 -6 3 -8 -3 -5 -17 11 -157 -148 -146 -165
3 -6 1 -8 -5 -4 -6 3 -28 -15 -49 -41 -21 -27 -44 -54 -51 -62 -52 -54 -272
-361 -272 -379 0 -7 -5 -12 -10 -12 -6 0 -18 -16 -27 -35 -9 -19 -20 -35 -25
-35 -4 0 -8 -5 -8 -11 0 -6 -14 -31 -32 -56 -17 -26 -31 -52 -31 -59 0 -7 -7
-16 -15 -19 -8 -3 -11 -12 -8 -21 3 -8 2 -13 -3 -10 -7 5 -36 -43 -31 -53 1
-2 -2 -7 -8 -10 -17 -11 -93 -164 -88 -177 3 -8 0 -11 -10 -7 -7 3 -14 0 -14
-7 0 -7 -17 -49 -39 -94 -73 -153 -94 -201 -94 -213 0 -7 -4 -13 -8 -13 -4 0
-10 -12 -14 -27 -3 -16 -12 -41 -20 -58 -15 -34 -39 -98 -41 -105 0 -3 -5 -16
-11 -30 -32 -77 -93 -272 -88 -280 3 -6 2 -10 -3 -10 -5 0 -12 -12 -15 -27 -3
-16 -19 -78 -35 -139 -32 -117 -78 -330 -87 -403 -3 -23 -7 -46 -9 -50 -2 -3
-6 -28 -10 -56 -3 -27 -10 -77 -15 -110 -12 -78 -12 -1191 0 -1270 22 -147 41
-261 46 -269 3 -4 7 -27 9 -50 1 -22 5 -48 7 -56 2 -8 11 -51 21 -95 10 -44
20 -87 23 -95 3 -8 7 -21 9 -29 10 -49 28 -118 33 -126 3 -5 6 -17 8 -25 6
-40 27 -100 35 -100 5 0 7 -4 3 -9 -5 -9 31 -132 54 -186 5 -11 31 -76 57
-145 90 -237 281 -628 304 -623 5 2 7 -3 4 -11 -3 -7 2 -21 11 -29 9 -9 16
-20 16 -24 0 -7 24 -49 83 -147 10 -17 22 -32 27 -34 5 -2 9 -8 9 -14 0 -12
61 -102 72 -106 4 -2 8 -9 8 -15 1 -16 86 -128 93 -121 3 3 4 -3 3 -13 0 -10
5 -17 12 -15 6 1 11 -2 10 -7 -3 -8 33 -62 80 -122 13 -16 29 -26 34 -22 7 3
8 1 4 -6 -5 -7 4 -23 21 -39 15 -15 30 -32 32 -37 3 -8 91 -112 127 -149 5 -6
33 -37 61 -68 28 -31 54 -54 57 -51 3 4 6 2 6 -4 0 -14 77 -93 90 -93 5 0 10
-7 10 -15 0 -8 4 -15 9 -15 4 0 29 -20 53 -45 25 -25 51 -45 58 -45 7 0 11 -3
7 -6 -7 -8 54 -60 66 -56 5 1 6 -2 3 -7 -4 -5 8 -20 26 -32 18 -13 41 -32 50
-42 15 -17 20 -18 35 -6 16 13 17 12 5 -3 -12 -15 -7 -21 38 -55 29 -21 56
-37 61 -35 5 1 8 -2 7 -7 -2 -5 27 -32 64 -60 38 -29 68 -48 68 -44 0 4 7 -3
16 -15 11 -16 22 -21 37 -17 15 4 18 3 9 -3 -10 -7 12 -26 84 -73 54 -35 102
-63 106 -61 4 1 8 -2 8 -7 0 -14 70 -52 82 -45 7 4 8 2 4 -4 -8 -14 30 -36 46
-26 6 4 8 3 5 -3 -6 -9 64 -56 79 -53 4 1 10 -2 13 -7 12 -19 142 -83 154 -77
7 4 8 3 4 -1 -9 -10 223 -126 235 -119 4 3 8 0 8 -7 0 -6 8 -9 20 -6 10 3 18
1 17 -4 -3 -14 132 -69 150 -62 10 4 14 2 10 -4 -9 -14 78 -47 101 -38 9 3 13
3 9 -1 -9 -9 42 -36 54 -28 5 3 9 1 9 -5 0 -6 17 -13 38 -17 20 -4 42 -10 47
-14 6 -4 33 -13 60 -20 28 -7 55 -17 61 -21 6 -5 27 -10 46 -11 20 -2 34 -6
31 -10 -2 -5 4 -8 15 -8 10 0 44 -8 75 -19 38 -12 57 -14 57 -7 0 8 2 8 8 0 6
-9 34 -20 77 -29 89 -20 129 -26 141 -21 9 3 12 1 9 -4 -3 -6 0 -11 7 -12 12
-1 25 -3 93 -12 17 -3 44 -9 61 -14 20 -6 37 -6 49 0 13 8 16 7 11 -1 -4 -6 0
-12 8 -12 9 -1 19 -2 24 -3 4 -1 43 -6 87 -11 44 -4 89 -9 100 -11 11 -1 51
-5 90 -8 38 -4 78 -9 89 -12 14 -5 16 -3 10 7 -6 11 -3 10 10 -1 15 -12 73
-14 355 -14 278 1 416 5 416 14 0 0 31 3 68 5 65 4 135 11 202 22 17 2 44 6
60 7 74 7 136 19 141 27 3 5 9 7 14 4 5 -3 32 0 62 6 29 7 59 12 66 12 6 0 12
3 12 6 0 3 12 7 28 7 15 1 36 4 47 7 11 3 30 6 43 6 13 1 21 4 19 9 -3 4 5 7
16 8 12 1 33 4 47 7 14 3 31 6 38 6 7 1 11 4 9 9 -3 4 7 8 21 8 15 1 34 4 42
6 8 3 35 10 60 17 25 7 48 18 52 25 6 8 8 8 8 -1 0 -9 8 -9 30 -2 16 6 28 14
26 17 -2 4 12 8 32 9 20 1 38 6 40 12 2 5 10 7 18 4 8 -3 14 0 14 7 0 6 4 9 9
6 5 -3 26 2 47 11 22 9 45 18 52 19 28 5 102 39 102 47 0 5 4 6 9 3 13 -9 91
26 84 37 -3 6 -1 7 6 3 15 -9 53 3 46 15 -3 5 1 6 9 3 10 -4 16 -1 16 7 0 7 3
10 6 6 10 -9 64 14 57 26 -3 5 -1 7 5 3 10 -6 100 30 112 45 3 3 18 9 33 13
17 4 25 11 21 18 -4 6 -3 8 3 5 11 -7 66 16 58 24 -2 3 5 6 17 6 12 1 25 8 29
15 5 7 16 13 26 13 10 0 17 5 16 12 -2 8 4 10 14 6 12 -5 14 -3 8 7 -5 7 -4
11 1 8 15 -9 56 11 48 23 -4 7 -3 9 3 6 15 -9 75 22 67 35 -4 7 -2 8 4 4 12
-7 96 37 87 46 -3 2 1 5 7 5 17 0 143 83 141 92 -1 4 4 8 12 8 19 0 85 46 79
55 -3 4 2 5 10 2 9 -3 16 -1 16 5 0 7 8 14 18 18 19 7 95 64 100 75 2 5 8 8
13 8 14 0 139 100 139 111 0 5 3 8 8 7 13 -5 113 85 108 97 -2 6 5 11 18 11
12 -1 20 4 18 12 -1 8 2 11 6 8 12 -7 44 28 35 39 -5 4 -3 5 3 2 15 -9 216
182 207 196 -3 5 -1 7 4 4 6 -4 48 34 94 84 46 51 95 102 109 115 14 13 22 24
18 24 -3 0 11 18 33 40 22 22 38 40 36 40 -3 0 13 19 34 42 22 24 39 49 39 55
0 7 4 13 8 13 11 0 148 181 144 192 -1 4 2 8 7 8 5 0 20 17 32 38 13 20 26 39
30 42 21 16 129 201 123 211 -4 7 -3 9 4 6 13 -9 105 149 96 165 -4 6 -3 8 3
5 13 -8 66 89 57 105 -5 7 -3 8 6 3 10 -6 12 -4 7 9 -4 9 -3 15 2 12 11 -7 33
43 25 56 -4 6 -3 8 3 5 7 -4 69 100 78 133 1 3 7 18 13 33 7 16 9 33 6 39 -4
6 -3 8 3 5 6 -4 15 5 22 19 9 20 9 24 -1 18 -7 -4 -3 4 10 18 12 13 22 28 22
33 0 5 18 53 41 108 22 54 38 106 34 115 -3 9 -3 13 1 9 10 -10 56 113 49 131
-2 7 0 10 5 7 6 -3 11 1 11 9 2 17 5 33 9 41 1 3 4 10 5 15 1 6 4 12 5 15 1 3
3 8 4 13 2 4 8 26 15 50 6 23 9 48 5 54 -4 7 -3 8 4 4 7 -4 12 -1 13 6 0 7 2
20 5 28 29 111 42 175 37 183 -3 6 -1 7 4 4 15 -9 22 49 9 64 -8 9 -8 10 0 6
7 -4 14 0 18 8 3 8 0 15 -7 15 -9 0 -9 2 0 8 12 7 24 56 26 109 1 17 6 29 10
26 5 -3 7 1 6 8 -2 8 1 32 5 54 4 22 10 57 11 78 2 22 6 41 9 44 3 4 0 13 -7
21 -9 13 -9 14 1 8 8 -5 12 0 13 16 0 13 2 32 4 43 2 11 6 54 10 95 4 41 9 77
11 79 2 2 -2 11 -9 19 -8 11 -8 14 0 9 8 -5 11 3 11 25 0 18 1 35 2 38 2 5 8
108 14 250 2 44 -2 81 -8 89 -8 11 -8 13 0 8 14 -8 13 51 -1 73 -5 8 -4 11 3
6 7 -4 9 8 7 36 -2 24 -5 81 -6 128 -1 47 -6 91 -13 99 -9 12 -8 13 2 7 11 -7
12 -4 3 13 -8 15 -9 21 -1 21 6 0 8 5 5 10 -7 11 -16 95 -15 139 0 14 -6 28
-12 33 -10 6 -10 8 -1 8 7 0 10 9 7 23 -3 12 -7 42 -10 67 -6 56 -9 77 -24
165 -6 39 -14 84 -16 100 -2 17 -6 39 -8 50 -5 19 -41 180 -52 235 -3 14 -7
30 -9 35 -1 6 -3 13 -4 17 -1 4 -11 38 -22 75 -11 38 -21 78 -23 90 -3 13 -7
27 -11 33 -4 6 -9 22 -11 37 -3 15 -10 33 -16 40 -6 7 -8 13 -5 13 10 0 -83
254 -96 262 -6 4 -9 8 -5 8 10 0 -22 90 -33 90 -4 0 -6 6 -3 14 3 8 1 17 -5
21 -6 3 -11 12 -11 20 0 13 -44 115 -93 213 -11 23 -25 42 -29 42 -5 0 -7 4
-4 9 3 5 -7 33 -22 63 -66 123 -106 193 -115 199 -5 3 -7 8 -5 10 7 9 -76 138
-85 132 -6 -3 -7 -1 -3 5 7 11 -52 112 -65 112 -5 0 -8 3 -7 8 3 8 -152 237
-181 269 -10 10 -24 29 -30 41 -7 13 -17 19 -23 16 -6 -4 -8 -3 -5 3 6 9 -57
93 -75 101 -5 2 -8 10 -8 18 0 9 -4 12 -10 9 -5 -3 -10 0 -10 8 0 7 -10 23
-22 35 -13 11 -38 39 -57 61 -18 22 -39 38 -45 34 -6 -3 -8 -3 -4 2 11 11 -31
67 -44 59 -6 -4 -8 -3 -5 3 8 13 -67 86 -77 76 -4 -5 -6 -3 -4 3 6 20 -60 83
-82 79 -11 -2 -18 0 -15 6 4 5 12 6 18 3 7 -4 -17 23 -53 59 -59 60 -92 85
-74 55 4 -7 3 -8 -5 -4 -6 4 -9 11 -6 16 3 4 -29 39 -71 77 -41 37 -76 66 -77
63 -1 -2 -14 7 -28 20 -64 60 -79 71 -89 65 -6 -4 -7 1 -3 12 3 10 3 15 -1 11
-4 -3 -16 1 -26 10 -40 36 -55 47 -62 44 -5 -1 -8 2 -8 7 0 11 -50 44 -67 44
-7 0 -10 4 -7 8 5 9 -30 31 -40 24 -3 -3 -4 -2 -1 1 5 8 -20 34 -33 34 -5 0
-17 9 -27 20 -10 11 -23 20 -30 20 -7 0 -20 9 -30 20 -10 11 -22 20 -26 20 -5
0 -34 18 -65 40 -32 22 -61 40 -66 40 -5 0 -22 10 -38 22 -28 20 -31 20 -48 5
-15 -14 -19 -15 -19 -2 0 8 4 12 8 9 4 -2 10 0 13 5 8 12 -81 64 -96 55 -6 -4
-8 -3 -5 3 3 5 -57 42 -133 81 -77 40 -140 69 -140 65 0 -5 -4 -3 -8 2 -4 6
-18 16 -31 23 -20 12 -25 12 -32 0 -7 -10 -9 -9 -9 6 0 12 -5 16 -16 12 -8 -3
-13 -2 -10 3 7 10 -42 33 -55 26 -5 -4 -9 -2 -9 4 0 5 -10 13 -22 17 -13 3
-41 14 -63 24 -22 10 -49 20 -60 22 -11 1 -22 6 -25 10 -3 3 -14 8 -25 10 -11
1 -23 7 -26 12 -4 5 -20 9 -37 10 -17 0 -28 4 -26 8 2 3 -10 11 -28 17 -39 14
-41 14 -33 -1 4 -7 1 -6 -7 2 -7 9 -31 22 -53 29 -22 7 -46 15 -54 18 -8 3
-11 1 -7 -5 3 -6 2 -14 -4 -17 -6 -4 -10 -3 -9 2 3 18 -1 36 -8 30 -3 -4 -12
-2 -20 4 -7 6 -22 9 -33 6 -11 -3 -18 -2 -15 3 3 4 -12 11 -33 16 -41 8 -40 8
-62 17 -20 8 -122 30 -137 30 -7 0 -13 4 -13 9 0 4 -7 8 -15 8 -8 0 -15 -5
-15 -11 0 -6 -7 -3 -16 6 -10 9 -25 14 -35 12 -10 -3 -19 -1 -21 4 -2 4 -20 9
-40 11 -21 1 -38 5 -38 8 0 6 -48 12 -102 14 -14 1 -24 4 -21 8 2 5 -6 7 -19
7 -13 -1 -34 2 -48 5 -14 4 -41 9 -60 12 -19 3 -38 8 -42 11 -5 2 -8 -1 -8 -7
0 -6 -5 -8 -12 -3 -14 8 -41 13 -109 17 -26 2 -52 7 -58 10 -6 4 -11 1 -11 -6
0 -10 -2 -10 -8 -1 -4 7 -21 11 -37 9 -17 -1 -40 2 -52 7 -16 7 -27 6 -40 -4
-11 -9 -14 -10 -9 -1 5 9 -3 12 -31 13 -117 4 -244 8 -289 10 -28 1 -56 -1
-62 -5 -5 -3 -12 -1 -14 6 -3 7 -7 8 -10 2z m277 -24 c3 -5 1 -10 -4 -10 -6 0
-11 5 -11 10 0 6 2 10 4 10 3 0 8 -4 11 -10z m-535 -20 c0 -5 -5 -10 -11 -10
-5 0 -7 5 -4 10 3 6 8 10 11 10 2 0 4 -4 4 -10z m275 0 c3 -5 1 -10 -4 -10 -6
0 -11 5 -11 10 0 6 2 10 4 10 3 0 8 -4 11 -10z m360 0 c3 -5 1 -10 -4 -10 -6
0 -11 5 -11 10 0 6 2 10 4 10 3 0 8 -4 11 -10z m-299 -20 c0 -12 -4 -16 -9
-11 -5 5 -6 14 -3 20 10 15 12 14 12 -9z m-546 6 c0 -2 -8 -10 -17 -17 -16
-13 -17 -12 -4 4 13 16 21 21 21 13z m134 -4 c3 -5 -1 -9 -9 -9 -8 0 -12 4 -9
9 3 4 7 8 9 8 2 0 6 -4 9 -8z m216 4 c0 -3 -4 -8 -10 -11 -5 -3 -10 -1 -10 4
0 6 5 11 10 11 6 0 10 -2 10 -4z m151 -19 c-10 -9 -11 -8 -5 6 3 10 9 15 12
12 3 -3 0 -11 -7 -18z m313 15 c3 -5 -1 -9 -9 -9 -8 0 -12 4 -9 9 3 4 7 8 9 8
2 0 6 -4 9 -8z m-567 -17 c0 -8 -4 -12 -9 -9 -5 3 -6 10 -3 15 9 13 12 11 12
-6z m-402 -5 c3 -5 1 -10 -4 -10 -6 0 -11 5 -11 10 0 6 2 10 4 10 3 0 8 -4 11
-10z m1400 0 c3 -5 1 -10 -4 -10 -6 0 -11 5 -11 10 0 6 2 10 4 10 3 0 8 -4 11
-10z m40 0 c3 -5 1 -10 -4 -10 -6 0 -11 5 -11 10 0 6 2 10 4 10 3 0 8 -4 11
-10z m-1534 -17 c13 -16 12 -17 -3 -4 -10 7 -18 15 -18 17 0 8 8 3 21 -13z
m276 2 c0 -8 -4 -12 -9 -9 -5 3 -6 10 -3 15 9 13 12 11 12 -6z m1223 -19 c0
-3 -4 -8 -10 -11 -5 -3 -10 -1 -10 4 0 6 5 11 10 11 6 0 10 -2 10 -4z m235 -6
c3 -5 1 -10 -4 -10 -6 0 -11 5 -11 10 0 6 2 10 4 10 3 0 8 -4 11 -10z m-1757
-25 c-3 -3 -9 2 -12 12 -6 14 -5 15 5 6 7 -7 10 -15 7 -18z m-358 -9 c0 -3 -4
-8 -10 -11 -5 -3 -10 -1 -10 4 0 6 5 11 10 11 6 0 10 -2 10 -4z m2120 0 c0 -3
-4 -8 -10 -11 -5 -3 -10 -1 -10 4 0 6 5 11 10 11 6 0 10 -2 10 -4z m-2229 -33
c13 -16 12 -17 -3 -4 -10 7 -18 15 -18 17 0 8 8 3 21 -13z m124 -21 c-3 -3
-11 0 -18 7 -9 10 -8 11 6 5 10 -3 15 -9 12 -12z m2405 4 c0 -2 -8 -10 -17
-17 -16 -13 -17 -12 -4 4 13 16 21 21 21 13z m-2705 -36 c3 -5 1 -10 -4 -10
-6 0 -11 5 -11 10 0 6 2 10 4 10 3 0 8 -4 11 -10z m2765 6 c0 -3 -4 -8 -10
-11 -5 -3 -10 -1 -10 4 0 6 5 11 10 11 6 0 10 -2 10 -4z m100 -10 c0 -2 -6 -9
-14 -15 -11 -9 -16 -9 -22 0 -4 7 -3 9 4 5 6 -3 13 -2 17 4 6 10 15 14 15 6z
m41 -13 c13 -16 12 -17 -3 -4 -10 7 -18 15 -18 17 0 8 8 3 21 -13z m133 -41
c3 -5 -1 -9 -9 -9 -8 0 -12 4 -9 9 3 4 7 8 9 8 2 0 6 -4 9 -8z m-3237 -32 c1
-11 -2 -22 -6 -24 -6 -4 -7 26 -2 42 3 8 7 -1 8 -18z m-44 -15 c4 -8 3 -16 -1
-19 -4 -3 -9 4 -9 15 -2 23 3 25 10 4z m3407 -15 c0 -5 -5 -10 -11 -10 -5 0
-7 5 -4 10 3 6 8 10 11 10 2 0 4 -4 4 -10z m105 -20 c3 -6 -1 -7 -9 -4 -18 7
-21 14 -7 14 6 0 13 -4 16 -10z m-3625 -14 c0 -3 -4 -8 -10 -11 -5 -3 -10 -1
-10 4 0 6 5 11 10 11 6 0 10 -2 10 -4z m-187 -61 c-3 -9 -8 -14 -10 -11 -3 3
-2 9 2 15 9 16 15 13 8 -4z m-42 -18 c-10 -9 -11 -8 -5 6 3 10 9 15 12 12 3
-3 0 -11 -7 -18z m4042 -22 c-3 -9 -8 -14 -10 -11 -3 3 -2 9 2 15 9 16 15 13
8 -4z m48 -2 c13 -16 12 -17 -3 -4 -10 7 -18 15 -18 17 0 8 8 3 21 -13z m39
-3 c0 -5 -2 -10 -4 -10 -3 0 -8 5 -11 10 -3 6 -1 10 4 10 6 0 11 -4 11 -10z
m-4205 -29 c3 -5 2 -12 -3 -15 -5 -3 -9 1 -9 9 0 17 3 19 12 6z m4522 -176 c0
-8 -4 -12 -9 -9 -5 3 -6 10 -3 15 9 13 12 11 12 -6z m48 5 c3 -6 -1 -7 -9 -4
-18 7 -21 14 -7 14 6 0 13 -4 16 -10z m-4968 -25 c0 -8 -4 -12 -9 -9 -5 3 -6
10 -3 15 9 13 12 11 12 -6z m5088 -55 c-3 -5 -12 -10 -18 -10 -7 0 -6 4 3 10
19 12 23 12 15 0z m-5265 -20 c0 -5 -5 -10 -11 -10 -5 0 -7 5 -4 10 3 6 8 10
11 10 2 0 4 -4 4 -10z m40 0 c0 -5 -2 -10 -4 -10 -3 0 -8 5 -11 10 -3 6 -1 10
4 10 6 0 11 -4 11 -10z m40 6 c0 -3 -4 -8 -10 -11 -5 -3 -10 -1 -10 4 0 6 5
11 10 11 6 0 10 -2 10 -4z m5275 -5 c3 -5 2 -12 -3 -15 -5 -3 -9 1 -9 9 0 17
3 19 12 6z m-5395 -35 c0 -3 -4 -8 -10 -11 -5 -3 -10 -1 -10 4 0 6 5 11 10 11
6 0 10 -2 10 -4z m5360 0 c0 -3 -4 -8 -10 -11 -5 -3 -10 -1 -10 4 0 6 5 11 10
11 6 0 10 -2 10 -4z m97 -33 c0 -9 -4 -10 -14 -2 -7 6 -13 12 -13 14 0 1 6 2
13 2 8 0 14 -6 14 -14z m63 -7 c0 -3 -4 -8 -10 -11 -5 -3 -10 -1 -10 4 0 6 5
11 10 11 6 0 10 -2 10 -4z m-5620 -20 c0 -3 -4 -8 -10 -11 -5 -3 -10 -1 -10 4
0 6 5 11 10 11 6 0 10 -2 10 -4z m115 -14 c-3 -3 -11 0 -18 7 -9 10 -8 11 6 5
10 -3 15 -9 12 -12z m5500 -12 c3 -5 1 -10 -4 -10 -6 0 -11 5 -11 10 0 6 2 10
4 10 3 0 8 -4 11 -10z m40 0 c3 -5 1 -10 -4 -10 -6 0 -11 5 -11 10 0 6 2 10 4
10 3 0 8 -4 11 -10z m-5575 -16 c0 -8 -19 -13 -24 -6 -3 5 1 9 9 9 8 0 15 -2
15 -3z m-100 -24 c0 -5 -5 -10 -11 -10 -5 0 -7 5 -4 10 3 6 8 10 11 10 2 0 4
-4 4 -10z m5600 6 c0 -3 -4 -8 -10 -11 -5 -3 -10 -1 -10 4 0 6 5 11 10 11 6 0
10 -2 10 -4z m-5705 -45 c-9 -8 -36 -10 -30 -2 2 4 11 8 20 8 8 0 13 -3 10 -6z
m5865 5 c0 -3 -4 -8 -10 -11 -5 -3 -10 -1 -10 4 0 6 5 11 10 11 6 0 10 -2 10
-4z m40 -6 c0 -5 -5 -10 -11 -10 -5 0 -7 5 -4 10 3 6 8 10 11 10 2 0 4 -4 4
-10z m-5925 -40 c3 -5 1 -10 -4 -10 -6 0 -11 5 -11 10 0 6 2 10 4 10 3 0 8 -4
11 -10z m5822 -5 c0 -8 -4 -12 -9 -9 -5 3 -6 10 -3 15 9 13 12 11 12 -6z m143
11 c0 -3 -4 -8 -10 -11 -5 -3 -10 -1 -10 4 0 6 5 11 10 11 6 0 10 -2 10 -4z
m-5895 -46 c-3 -5 -12 -10 -18 -10 -7 0 -6 4 3 10 19 12 23 12 15 0z m-115
-15 c0 -2 -6 -8 -13 -14 -10 -8 -14 -7 -14 2 0 8 6 14 14 14 7 0 13 -1 13 -2z
m6027 -10 c0 -8 -4 -12 -9 -9 -5 3 -6 10 -3 15 9 13 12 11 12 -6z m-36 -32
c13 -16 12 -17 -3 -4 -10 7 -18 15 -18 17 0 8 8 3 21 -13z m-5997 -1 c3 -5 -1
-9 -9 -9 -8 0 -12 4 -9 9 3 4 7 8 9 8 2 0 6 -4 9 -8z m6046 2 c0 -8 -19 -13
-24 -6 -3 5 1 9 9 9 8 0 15 -2 15 -3z m130 -24 c0 -5 -2 -10 -4 -10 -3 0 -8 5
-11 10 -3 6 -1 10 4 10 6 0 11 -4 11 -10z m-6220 -16 c0 -8 -19 -13 -24 -6 -3
5 1 9 9 9 8 0 15 -2 15 -3z m6124 -22 c3 -5 -1 -9 -9 -9 -8 0 -15 4 -15 9 0 4
4 8 9 8 6 0 12 -4 15 -8z m-6326 -47 c-3 -3 -9 2 -12 12 -6 14 -5 15 5 6 7 -7
10 -15 7 -18z m78 3 c3 -4 -1 -5 -10 -4 -8 1 -18 5 -22 8 -3 4 1 5 10 4 8 -1
18 -5 22 -8z m6459 -78 c3 -5 1 -10 -4 -10 -6 0 -11 5 -11 10 0 6 2 10 4 10 3
0 8 -4 11 -10z m40 0 c3 -5 1 -10 -4 -10 -6 0 -11 5 -11 10 0 6 2 10 4 10 3 0
8 -4 11 -10z m-6600 -40 c3 -5 1 -10 -4 -10 -6 0 -11 5 -11 10 0 6 2 10 4 10
3 0 8 -4 11 -10z m-115 -16 c0 -8 -19 -13 -24 -6 -3 5 1 9 9 9 8 0 15 -2 15
-3z m6795 -24 c3 -5 1 -10 -4 -10 -6 0 -11 5 -11 10 0 6 2 10 4 10 3 0 8 -4
11 -10z m-6801 -18 c3 -5 -1 -9 -9 -9 -8 0 -12 4 -9 9 3 4 7 8 9 8 2 0 6 -4 9
-8z m41 -21 c3 -5 2 -12 -3 -15 -5 -3 -9 1 -9 9 0 17 3 19 12 6z m-125 -97 c0
-8 -19 -13 -24 -6 -3 5 1 9 9 9 8 0 15 -2 15 -3z m7030 2 c0 -2 -7 -7 -16 -10
-8 -3 -12 -2 -9 4 6 10 25 14 25 6z m-7206 -92 c3 -8 2 -12 -4 -9 -6 3 -10 10
-10 16 0 14 7 11 14 -7z m7266 -14 c0 -5 -5 -10 -11 -10 -5 0 -7 5 -4 10 3 6
8 10 11 10 2 0 4 -4 4 -10z m-5 -40 c3 -5 1 -10 -4 -10 -6 0 -11 5 -11 10 0 6
2 10 4 10 3 0 8 -4 11 -10z m121 -42 c3 -4 -1 -5 -10 -4 -8 1 -18 5 -22 8 -3
4 1 5 10 4 8 -1 18 -5 22 -8z m0 -63 c-1 -8 -5 -17 -8 -21 -5 -4 -4 16 1 34 3
9 9 -1 7 -13z m-7819 -400 c0 -8 -4 -12 -9 -9 -5 3 -6 10 -3 15 9 13 12 11 12
-6z m-77 -151 c0 -8 -19 -13 -24 -6 -3 5 1 9 9 9 8 0 15 -2 15 -3z m8760 -758
c0 -3 -4 -8 -10 -11 -5 -3 -10 -1 -10 4 0 6 5 11 10 11 6 0 10 -2 10 -4z
m-9449 -939 c-10 -9 -11 -8 -5 6 3 10 9 15 12 12 3 -3 0 -11 -7 -18z m9646
-2222 c0 -8 -4 -12 -9 -9 -5 3 -6 10 -3 15 9 13 12 11 12 -6z m-319 -910 c-3
-3 -9 2 -12 12 -6 14 -5 15 5 6 7 -7 10 -15 7 -18z m-268 -508 c0 -2 -10 -12
-22 -23 l-23 -19 19 23 c18 21 26 27 26 19z"/>
</g>
</svg>
